<svg xmlns="http://www.w3.org/2000/svg" xmlns:xlink="http://www.w3.org/1999/xlink" width="148" zoomAndPan="magnify" viewBox="0 0 110.88 30.000001" height="40" preserveAspectRatio="xMidYMid meet" version="1.2"><defs><clipPath id="ffaa8dbb69"><path d="M 80 6 L 87 6 L 87 13 L 80 13 Z M 80 6 "/></clipPath><clipPath id="ad0a72b789"><path d="M 79.183594 7.707031 L 83.445312 3.765625 L 88.867188 9.628906 L 84.601562 13.570312 Z M 79.183594 7.707031 "/></clipPath><clipPath id="69dce70b2d"><path d="M 79.183594 7.707031 L 83.445312 3.765625 L 88.867188 9.628906 L 84.601562 13.570312 Z M 79.183594 7.707031 "/></clipPath><clipPath id="7538b24539"><path d="M 85 3 L 92 3 L 92 10 L 85 10 Z M 85 3 "/></clipPath><clipPath id="9672be7c5c"><path d="M 83.96875 4.195312 L 88.765625 -0.238281 L 95.167969 6.691406 L 90.371094 11.125 Z M 83.96875 4.195312 "/></clipPath><clipPath id="5dd3b3b2a3"><path d="M 83.96875 4.195312 L 88.765625 -0.238281 L 95.167969 6.691406 L 90.371094 11.125 Z M 83.96875 4.195312 "/></clipPath><clipPath id="28da0c4211"><path d="M 12 0 L 77 0 L 77 29.03125 L 12 29.03125 Z M 12 0 "/></clipPath><clipPath id="1284d4533c"><rect x="0" width="65" y="0" height="30"/></clipPath></defs><g id="d587d09e74"><g clip-rule="nonzero" clip-path="url(#ffaa8dbb69)"><g clip-rule="nonzero" clip-path="url(#ad0a72b789)"><g clip-rule="nonzero" clip-path="url(#69dce70b2d)"><path style=" stroke:none;fill-rule:nonzero;fill:#18cb96;fill-opacity:1;" d="M 86.011719 7.042969 L 81.128906 6.824219 C 80.1875 6.78125 80.027344 8.621094 81.144531 8.648438 L 84.183594 8.730469 L 83.949219 11.789062 C 83.878906 12.71875 85.695312 12.816406 85.746094 11.871094 Z M 86.011719 7.042969 "/></g></g></g><g clip-rule="nonzero" clip-path="url(#7538b24539)"><g clip-rule="nonzero" clip-path="url(#9672be7c5c)"><g clip-rule="nonzero" clip-path="url(#5dd3b3b2a3)"><path style=" stroke:none;fill-rule:nonzero;fill:#18cb96;fill-opacity:1;" d="M 91.6875 3.441406 L 86.167969 3.199219 C 85.101562 3.148438 84.921875 5.226562 86.183594 5.261719 L 89.621094 5.355469 L 89.359375 8.8125 C 89.277344 9.863281 91.332031 9.976562 91.390625 8.90625 Z M 91.6875 3.441406 "/></g></g></g><g clip-rule="nonzero" clip-path="url(#28da0c4211)"><g transform="matrix(1,0,0,1,12,0.000000000000005692)"><g clip-path="url(#1284d4533c)"><g style="fill:#373643;fill-opacity:1;"><g transform="translate(0.583406, 23.39518)"><path style="stroke:none" d="M 17.90625 -2.609375 C 18.28125 -2.234375 18.4375 -1.835938 18.375 -1.421875 C 18.320312 -1.015625 18.144531 -0.675781 17.84375 -0.40625 C 17.539062 -0.132812 17.195312 0 16.8125 0 C 16.394531 0 16.03125 -0.164062 15.71875 -0.5 L 15.078125 -1.171875 C 13.617188 -0.203125 11.863281 0.28125 9.8125 0.28125 C 7.976562 0.28125 6.367188 -0.0976562 4.984375 -0.859375 C 3.597656 -1.628906 2.519531 -2.703125 1.75 -4.078125 C 0.988281 -5.460938 0.609375 -7.070312 0.609375 -8.90625 C 0.609375 -10.757812 0.988281 -12.375 1.75 -13.75 C 2.519531 -15.132812 3.597656 -16.207031 4.984375 -16.96875 C 6.367188 -17.738281 7.976562 -18.125 9.8125 -18.125 C 11.632812 -18.125 13.226562 -17.738281 14.59375 -16.96875 C 15.957031 -16.207031 17.015625 -15.132812 17.765625 -13.75 C 18.523438 -12.375 18.90625 -10.757812 18.90625 -8.90625 C 18.90625 -6.6875 18.351562 -4.8125 17.25 -3.28125 Z M 9.8125 -2.578125 C 10.40625 -2.578125 10.96875 -2.648438 11.5 -2.796875 C 12.03125 -2.953125 12.507812 -3.160156 12.9375 -3.421875 L 11.796875 -4.625 C 11.472656 -5 11.3125 -5.351562 11.3125 -5.6875 C 11.3125 -6.082031 11.460938 -6.414062 11.765625 -6.6875 C 12.066406 -6.957031 12.421875 -7.09375 12.828125 -7.09375 C 13.316406 -7.09375 13.75 -6.914062 14.125 -6.5625 L 14.953125 -5.6875 C 15.160156 -6.15625 15.320312 -6.660156 15.4375 -7.203125 C 15.5625 -7.742188 15.625 -8.3125 15.625 -8.90625 C 15.625 -10.175781 15.378906 -11.285156 14.890625 -12.234375 C 14.410156 -13.191406 13.738281 -13.9375 12.875 -14.46875 C 12.007812 -15 10.988281 -15.265625 9.8125 -15.265625 C 8.632812 -15.265625 7.597656 -15 6.703125 -14.46875 C 5.816406 -13.9375 5.128906 -13.191406 4.640625 -12.234375 C 4.160156 -11.285156 3.921875 -10.175781 3.921875 -8.90625 C 3.921875 -7.65625 4.160156 -6.550781 4.640625 -5.59375 C 5.128906 -4.644531 5.816406 -3.90625 6.703125 -3.375 C 7.597656 -2.84375 8.632812 -2.578125 9.8125 -2.578125 Z M 9.8125 -2.578125 "/></g></g><g style="fill:#373643;fill-opacity:1;"><g transform="translate(20.610078, 23.39518)"><path style="stroke:none" d="M 8.015625 -14.546875 C 9.503906 -14.546875 10.804688 -14.226562 11.921875 -13.59375 C 13.046875 -12.96875 13.914062 -12.09375 14.53125 -10.96875 C 15.15625 -9.851562 15.46875 -8.550781 15.46875 -7.0625 C 15.445312 -5.601562 15.125 -4.320312 14.5 -3.21875 C 13.875 -2.113281 13.003906 -1.253906 11.890625 -0.640625 C 10.773438 -0.0234375 9.484375 0.28125 8.015625 0.28125 C 6.554688 0.28125 5.265625 -0.0234375 4.140625 -0.640625 C 3.023438 -1.253906 2.15625 -2.113281 1.53125 -3.21875 C 0.90625 -4.320312 0.582031 -5.601562 0.5625 -7.0625 C 0.5625 -8.550781 0.875 -9.851562 1.5 -10.96875 C 2.125 -12.09375 2.992188 -12.96875 4.109375 -13.59375 C 5.234375 -14.226562 6.535156 -14.546875 8.015625 -14.546875 Z M 8.015625 -2.515625 C 9.285156 -2.515625 10.296875 -2.9375 11.046875 -3.78125 C 11.804688 -4.625 12.1875 -5.71875 12.1875 -7.0625 C 12.1875 -8.445312 11.804688 -9.570312 11.046875 -10.4375 C 10.296875 -11.300781 9.285156 -11.734375 8.015625 -11.734375 C 6.765625 -11.734375 5.753906 -11.300781 4.984375 -10.4375 C 4.222656 -9.570312 3.84375 -8.445312 3.84375 -7.0625 C 3.84375 -5.71875 4.222656 -4.625 4.984375 -3.78125 C 5.753906 -2.9375 6.765625 -2.515625 8.015625 -2.515625 Z M 8.015625 -2.515625 "/></g></g><g style="fill:#373643;fill-opacity:1;"><g transform="translate(36.155202, 23.39518)"><path style="stroke:none" d="M 4.171875 -1.40625 C 4.171875 -1.03125 4.015625 -0.703125 3.703125 -0.421875 C 3.398438 -0.140625 3.023438 0 2.578125 0 C 2.109375 0 1.722656 -0.140625 1.421875 -0.421875 C 1.128906 -0.703125 0.984375 -1.03125 0.984375 -1.40625 L 0.984375 -16.71875 C 0.984375 -17.09375 1.128906 -17.421875 1.421875 -17.703125 C 1.722656 -17.984375 2.109375 -18.125 2.578125 -18.125 C 3.023438 -18.125 3.398438 -17.984375 3.703125 -17.703125 C 4.015625 -17.421875 4.171875 -17.09375 4.171875 -16.71875 Z M 4.171875 -1.40625 "/></g></g><g style="fill:#373643;fill-opacity:1;"><g transform="translate(40.748546, 23.39518)"><path style="stroke:none" d="M 4.171875 -1.40625 C 4.171875 -1.03125 4.015625 -0.703125 3.703125 -0.421875 C 3.398438 -0.140625 3.023438 0 2.578125 0 C 2.109375 0 1.722656 -0.140625 1.421875 -0.421875 C 1.128906 -0.703125 0.984375 -1.03125 0.984375 -1.40625 L 0.984375 -16.71875 C 0.984375 -17.09375 1.128906 -17.421875 1.421875 -17.703125 C 1.722656 -17.984375 2.109375 -18.125 2.578125 -18.125 C 3.023438 -18.125 3.398438 -17.984375 3.703125 -17.703125 C 4.015625 -17.421875 4.171875 -17.09375 4.171875 -16.71875 Z M 4.171875 -1.40625 "/></g></g><g style="fill:#373643;fill-opacity:1;"><g transform="translate(45.341889, 23.39518)"><path style="stroke:none" d="M 4.203125 -16.359375 C 4.203125 -15.890625 4.03125 -15.535156 3.6875 -15.296875 C 3.34375 -15.066406 2.972656 -14.953125 2.578125 -14.953125 C 2.171875 -14.953125 1.796875 -15.066406 1.453125 -15.296875 C 1.117188 -15.535156 0.953125 -15.890625 0.953125 -16.359375 L 0.953125 -16.71875 C 0.953125 -17.207031 1.117188 -17.5625 1.453125 -17.78125 C 1.796875 -18.007812 2.171875 -18.125 2.578125 -18.125 C 2.972656 -18.125 3.34375 -18.007812 3.6875 -17.78125 C 4.03125 -17.5625 4.203125 -17.207031 4.203125 -16.71875 Z M 0.984375 -12.890625 C 0.984375 -13.335938 1.15625 -13.675781 1.5 -13.90625 C 1.84375 -14.144531 2.203125 -14.265625 2.578125 -14.265625 C 2.972656 -14.265625 3.335938 -14.144531 3.671875 -13.90625 C 4.003906 -13.675781 4.171875 -13.347656 4.171875 -12.921875 L 4.171875 -1.375 C 4.171875 -0.90625 4.003906 -0.554688 3.671875 -0.328125 C 3.335938 -0.109375 2.972656 0 2.578125 0 C 2.203125 0 1.84375 -0.109375 1.5 -0.328125 C 1.15625 -0.554688 0.984375 -0.90625 0.984375 -1.375 Z M 0.984375 -12.890625 "/></g></g><g style="fill:#373643;fill-opacity:1;"><g transform="translate(49.935232, 23.39518)"><path style="stroke:none" d="M 12.9375 -2.65625 C 13.3125 -2.25 13.484375 -1.835938 13.453125 -1.421875 C 13.429688 -1.015625 13.28125 -0.675781 13 -0.40625 C 12.71875 -0.132812 12.378906 0 11.984375 0 C 11.554688 0 11.140625 -0.203125 10.734375 -0.609375 L 6.71875 -4.953125 L 2.75 -0.671875 C 2.3125 -0.222656 1.84375 0 1.34375 0 C 0.96875 0 0.640625 -0.125 0.359375 -0.375 C 0.078125 -0.625 -0.0664062 -0.941406 -0.078125 -1.328125 C -0.0976562 -1.710938 0.078125 -2.109375 0.453125 -2.515625 L 4.765625 -7.171875 L 0.5625 -11.703125 C 0.1875 -12.117188 0.0078125 -12.519531 0.03125 -12.90625 C 0.0507812 -13.300781 0.203125 -13.625 0.484375 -13.875 C 0.773438 -14.132812 1.117188 -14.265625 1.515625 -14.265625 C 1.753906 -14.265625 2 -14.207031 2.25 -14.09375 C 2.507812 -13.976562 2.757812 -13.789062 3 -13.53125 L 6.78125 -9.46875 L 10.625 -13.59375 C 10.84375 -13.832031 11.070312 -14.003906 11.3125 -14.109375 C 11.5625 -14.210938 11.796875 -14.265625 12.015625 -14.265625 C 12.410156 -14.265625 12.75 -14.140625 13.03125 -13.890625 C 13.3125 -13.648438 13.457031 -13.335938 13.46875 -12.953125 C 13.488281 -12.578125 13.304688 -12.171875 12.921875 -11.734375 L 8.71875 -7.234375 Z M 12.9375 -2.65625 "/></g></g></g></g></g></g></svg>