<svg xmlns="http://www.w3.org/2000/svg" xmlns:xlink="http://www.w3.org/1999/xlink" width="500" zoomAndPan="magnify" viewBox="0 0 375 374.999991" height="500" preserveAspectRatio="xMidYMid meet" version="1.2"><defs><clipPath id="9e46108eb9"><path d="M 234 165 L 256 165 L 256 187 L 234 187 Z M 234 165 "/></clipPath><clipPath id="c2671663d1"><path d="M 230.417969 169.066406 L 245.289062 155.320312 L 265.652344 177.351562 L 250.78125 191.097656 Z M 230.417969 169.066406 "/></clipPath><clipPath id="1ded05bce7"><path d="M 230.417969 169.066406 L 245.289062 155.320312 L 265.652344 177.351562 L 250.78125 191.097656 Z M 230.417969 169.066406 "/></clipPath><clipPath id="667d3a1f88"><path d="M 248 153 L 270 153 L 270 175 L 248 175 Z M 248 153 "/></clipPath><clipPath id="89a31db657"><path d="M 244.460938 156.957031 L 259.332031 143.210938 L 279.691406 165.242188 L 264.820312 178.988281 Z M 244.460938 156.957031 "/></clipPath><clipPath id="0a2af8de65"><path d="M 244.460938 156.957031 L 259.332031 143.210938 L 279.691406 165.242188 L 264.820312 178.988281 Z M 244.460938 156.957031 "/></clipPath><clipPath id="46720cb9ec"><rect x="0" width="122" y="0" height="65"/></clipPath></defs><g id="670a0c60f7"><g clip-rule="nonzero" clip-path="url(#9e46108eb9)"><g clip-rule="nonzero" clip-path="url(#c2671663d1)"><g clip-rule="nonzero" clip-path="url(#1ded05bce7)"><path style=" stroke:none;fill-rule:nonzero;fill:#18cb96;fill-opacity:1;" d="M 255.625 166.605469 L 237.601562 165.804688 C 234.121094 165.652344 233.53125 172.433594 237.65625 172.542969 L 248.871094 172.847656 L 248.015625 184.132812 C 247.753906 187.570312 254.457031 187.933594 254.648438 184.441406 Z M 255.625 166.605469 "/></g></g></g><g clip-rule="nonzero" clip-path="url(#667d3a1f88)"><g clip-rule="nonzero" clip-path="url(#89a31db657)"><g clip-rule="nonzero" clip-path="url(#0a2af8de65)"><path style=" stroke:none;fill-rule:nonzero;fill:#18cb96;fill-opacity:1;" d="M 269.667969 154.5 L 251.640625 153.699219 C 248.160156 153.542969 247.574219 160.324219 251.699219 160.4375 L 262.914062 160.742188 L 262.054688 172.027344 C 261.796875 175.460938 268.496094 175.824219 268.6875 172.332031 Z M 269.667969 154.5 "/></g></g></g><g transform="matrix(1,0,0,1,118,155)"><g clip-path="url(#46720cb9ec)"><g style="fill:#373643;fill-opacity:1;"><g transform="translate(0.655021, 51.034642)"><path style="stroke:none" d="M 34.28125 -4.984375 C 35 -4.273438 35.300781 -3.523438 35.1875 -2.734375 C 35.082031 -1.953125 34.742188 -1.300781 34.171875 -0.78125 C 33.609375 -0.257812 32.945312 0 32.1875 0 C 31.40625 0 30.707031 -0.320312 30.09375 -0.96875 L 28.859375 -2.25 C 26.078125 -0.394531 22.71875 0.53125 18.78125 0.53125 C 15.269531 0.53125 12.191406 -0.195312 9.546875 -1.65625 C 6.898438 -3.125 4.84375 -5.179688 3.375 -7.828125 C 1.914062 -10.472656 1.1875 -13.550781 1.1875 -17.0625 C 1.1875 -20.601562 1.914062 -23.695312 3.375 -26.34375 C 4.84375 -28.988281 6.898438 -31.046875 9.546875 -32.515625 C 12.191406 -33.984375 15.269531 -34.71875 18.78125 -34.71875 C 22.28125 -34.71875 25.335938 -33.984375 27.953125 -32.515625 C 30.566406 -31.046875 32.597656 -28.988281 34.046875 -26.34375 C 35.492188 -23.695312 36.21875 -20.601562 36.21875 -17.0625 C 36.21875 -12.800781 35.160156 -9.207031 33.046875 -6.28125 Z M 18.78125 -4.9375 C 19.925781 -4.9375 21.007812 -5.078125 22.03125 -5.359375 C 23.050781 -5.648438 23.972656 -6.046875 24.796875 -6.546875 L 22.59375 -8.859375 C 21.976562 -9.566406 21.671875 -10.242188 21.671875 -10.890625 C 21.671875 -11.640625 21.957031 -12.273438 22.53125 -12.796875 C 23.101562 -13.316406 23.785156 -13.578125 24.578125 -13.578125 C 25.503906 -13.578125 26.328125 -13.238281 27.046875 -12.5625 L 28.65625 -10.890625 C 29.050781 -11.785156 29.363281 -12.75 29.59375 -13.78125 C 29.820312 -14.820312 29.9375 -15.914062 29.9375 -17.0625 C 29.9375 -19.5 29.472656 -21.628906 28.546875 -23.453125 C 27.617188 -25.273438 26.320312 -26.695312 24.65625 -27.71875 C 22.988281 -28.738281 21.03125 -29.25 18.78125 -29.25 C 16.53125 -29.25 14.550781 -28.738281 12.84375 -27.71875 C 11.144531 -26.695312 9.832031 -25.273438 8.90625 -23.453125 C 7.976562 -21.628906 7.515625 -19.5 7.515625 -17.0625 C 7.515625 -14.664062 7.976562 -12.554688 8.90625 -10.734375 C 9.832031 -8.910156 11.144531 -7.488281 12.84375 -6.46875 C 14.550781 -5.445312 16.53125 -4.9375 18.78125 -4.9375 Z M 18.78125 -4.9375 "/></g></g><g style="fill:#373643;fill-opacity:1;"><g transform="translate(39.014897, 51.034642)"><path style="stroke:none" d="M 15.34375 -27.84375 C 18.207031 -27.84375 20.710938 -27.242188 22.859375 -26.046875 C 25.003906 -24.847656 26.664062 -23.175781 27.84375 -21.03125 C 29.03125 -18.882812 29.625 -16.378906 29.625 -13.515625 C 29.582031 -10.734375 28.960938 -8.285156 27.765625 -6.171875 C 26.566406 -4.054688 24.898438 -2.410156 22.765625 -1.234375 C 20.640625 -0.0546875 18.164062 0.53125 15.34375 0.53125 C 12.550781 0.53125 10.082031 -0.0546875 7.9375 -1.234375 C 5.789062 -2.410156 4.117188 -4.054688 2.921875 -6.171875 C 1.722656 -8.285156 1.109375 -10.734375 1.078125 -13.515625 C 1.078125 -16.378906 1.675781 -18.882812 2.875 -21.03125 C 4.070312 -23.175781 5.742188 -24.847656 7.890625 -26.046875 C 10.035156 -27.242188 12.519531 -27.84375 15.34375 -27.84375 Z M 15.34375 -4.828125 C 17.78125 -4.828125 19.722656 -5.628906 21.171875 -7.234375 C 22.617188 -8.847656 23.34375 -10.941406 23.34375 -13.515625 C 23.34375 -16.160156 22.617188 -18.316406 21.171875 -19.984375 C 19.722656 -21.648438 17.78125 -22.484375 15.34375 -22.484375 C 12.945312 -22.484375 11.015625 -21.648438 9.546875 -19.984375 C 8.078125 -18.316406 7.34375 -16.160156 7.34375 -13.515625 C 7.34375 -10.941406 8.078125 -8.847656 9.546875 -7.234375 C 11.015625 -5.628906 12.945312 -4.828125 15.34375 -4.828125 Z M 15.34375 -4.828125 "/></g></g><g style="fill:#373643;fill-opacity:1;"><g transform="translate(68.790641, 51.034642)"><path style="stroke:none" d="M 8 -2.6875 C 8 -1.96875 7.703125 -1.335938 7.109375 -0.796875 C 6.515625 -0.265625 5.789062 0 4.9375 0 C 4.039062 0 3.304688 -0.265625 2.734375 -0.796875 C 2.160156 -1.335938 1.875 -1.96875 1.875 -2.6875 L 1.875 -32.03125 C 1.875 -32.75 2.160156 -33.375 2.734375 -33.90625 C 3.304688 -34.445312 4.039062 -34.71875 4.9375 -34.71875 C 5.789062 -34.71875 6.515625 -34.445312 7.109375 -33.90625 C 7.703125 -33.375 8 -32.75 8 -32.03125 Z M 8 -2.6875 "/></g></g><g style="fill:#373643;fill-opacity:1;"><g transform="translate(77.588912, 51.034642)"><path style="stroke:none" d="M 8 -2.6875 C 8 -1.96875 7.703125 -1.335938 7.109375 -0.796875 C 6.515625 -0.265625 5.789062 0 4.9375 0 C 4.039062 0 3.304688 -0.265625 2.734375 -0.796875 C 2.160156 -1.335938 1.875 -1.96875 1.875 -2.6875 L 1.875 -32.03125 C 1.875 -32.75 2.160156 -33.375 2.734375 -33.90625 C 3.304688 -34.445312 4.039062 -34.71875 4.9375 -34.71875 C 5.789062 -34.71875 6.515625 -34.445312 7.109375 -33.90625 C 7.703125 -33.375 8 -32.75 8 -32.03125 Z M 8 -2.6875 "/></g></g><g style="fill:#373643;fill-opacity:1;"><g transform="translate(86.387183, 51.034642)"><path style="stroke:none" d="M 8.046875 -31.328125 C 8.046875 -30.441406 7.710938 -29.773438 7.046875 -29.328125 C 6.390625 -28.878906 5.6875 -28.65625 4.9375 -28.65625 C 4.144531 -28.65625 3.425781 -28.878906 2.78125 -29.328125 C 2.144531 -29.773438 1.828125 -30.441406 1.828125 -31.328125 L 1.828125 -32.03125 C 1.828125 -32.957031 2.144531 -33.632812 2.78125 -34.0625 C 3.425781 -34.5 4.144531 -34.71875 4.9375 -34.71875 C 5.6875 -34.71875 6.390625 -34.5 7.046875 -34.0625 C 7.710938 -33.632812 8.046875 -32.957031 8.046875 -32.03125 Z M 1.875 -24.6875 C 1.875 -25.539062 2.203125 -26.191406 2.859375 -26.640625 C 3.523438 -27.085938 4.21875 -27.3125 4.9375 -27.3125 C 5.6875 -27.3125 6.382812 -27.085938 7.03125 -26.640625 C 7.675781 -26.191406 8 -25.554688 8 -24.734375 L 8 -2.625 C 8 -1.726562 7.675781 -1.066406 7.03125 -0.640625 C 6.382812 -0.210938 5.6875 0 4.9375 0 C 4.21875 0 3.523438 -0.210938 2.859375 -0.640625 C 2.203125 -1.066406 1.875 -1.726562 1.875 -2.625 Z M 1.875 -24.6875 "/></g></g><g style="fill:#373643;fill-opacity:1;"><g transform="translate(95.185454, 51.034642)"><path style="stroke:none" d="M 24.796875 -5.09375 C 25.503906 -4.3125 25.832031 -3.523438 25.78125 -2.734375 C 25.726562 -1.953125 25.429688 -1.300781 24.890625 -0.78125 C 24.359375 -0.257812 23.71875 0 22.96875 0 C 22.144531 0 21.335938 -0.394531 20.546875 -1.1875 L 12.875 -9.5 L 5.265625 -1.28125 C 4.441406 -0.425781 3.546875 0 2.578125 0 C 1.859375 0 1.226562 -0.238281 0.6875 -0.71875 C 0.15625 -1.207031 -0.125 -1.816406 -0.15625 -2.546875 C -0.195312 -3.285156 0.140625 -4.046875 0.859375 -4.828125 L 9.125 -13.734375 L 1.078125 -22.421875 C 0.359375 -23.210938 0.015625 -23.984375 0.046875 -24.734375 C 0.0859375 -25.484375 0.382812 -26.097656 0.9375 -26.578125 C 1.488281 -27.066406 2.140625 -27.3125 2.890625 -27.3125 C 3.359375 -27.3125 3.832031 -27.203125 4.3125 -26.984375 C 4.800781 -26.773438 5.273438 -26.421875 5.734375 -25.921875 L 12.984375 -18.140625 L 20.328125 -26.015625 C 20.765625 -26.484375 21.210938 -26.816406 21.671875 -27.015625 C 22.140625 -27.210938 22.585938 -27.3125 23.015625 -27.3125 C 23.765625 -27.3125 24.40625 -27.078125 24.9375 -26.609375 C 25.476562 -26.148438 25.765625 -25.550781 25.796875 -24.8125 C 25.835938 -24.082031 25.484375 -23.304688 24.734375 -22.484375 L 16.6875 -13.84375 Z M 24.796875 -5.09375 "/></g></g></g></g></g></svg>
